<?xml version="1.0" encoding="utf-8"?>
<svg version="1.1" xmlns:xlink="http://www.w3.org/1999/xlink" width="16px" height="15px" xmlns="http://www.w3.org/2000/svg">
  <defs>
    <mask fill="white" id="clip22">
      <path d="M 9.15999989142476 13.9291560320627  C 9.15999989142476 13.9291560320627  8 15  8 15  C 8 15  6.84000010857524 13.9209814178982  6.84000010857524 13.9209814178982  C 2.7199999244694 10.1035418345125  0 7.58583099004884  0 4.49591288961202  C 0 1.97820167634665  1.93600009063672 0  4.40000014161987 0  C 5.79199982250309 0  7.12799970071 0.662125307236461  8 1.70844678495336  C 8.87199982722375 0.662125307236461  10.2080001774969 0  11.5999998583801 0  C 14.0639996733302 0  16 1.97820167634665  16 4.49591288961202  C 16 7.58583099004884  13.2800005475968 10.1035418345125  9.15999989142476 13.9291560320627  Z " fill-rule="evenodd" />
    </mask>
  </defs>
  <g transform="matrix(1 0 0 1 -2410 -1976 )">
    <path d="M 9.15999989142476 13.9291560320627  C 9.15999989142476 13.9291560320627  8 15  8 15  C 8 15  6.84000010857524 13.9209814178982  6.84000010857524 13.9209814178982  C 2.7199999244694 10.1035418345125  0 7.58583099004884  0 4.49591288961202  C 0 1.97820167634665  1.93600009063672 0  4.40000014161987 0  C 5.79199982250309 0  7.12799970071 0.662125307236461  8 1.70844678495336  C 8.87199982722375 0.662125307236461  10.2080001774969 0  11.5999998583801 0  C 14.0639996733302 0  16 1.97820167634665  16 4.49591288961202  C 16 7.58583099004884  13.2800005475968 10.1035418345125  9.15999989142476 13.9291560320627  Z " fill-rule="nonzero" fill="#ffffff" stroke="none" fill-opacity="0" transform="matrix(1 0 0 1 2410 1976 )" />
    <path d="M 9.15999989142476 13.9291560320627  C 9.15999989142476 13.9291560320627  8 15  8 15  C 8 15  6.84000010857524 13.9209814178982  6.84000010857524 13.9209814178982  C 2.7199999244694 10.1035418345125  0 7.58583099004884  0 4.49591288961202  C 0 1.97820167634665  1.93600009063672 0  4.40000014161987 0  C 5.79199982250309 0  7.12799970071 0.662125307236461  8 1.70844678495336  C 8.87199982722375 0.662125307236461  10.2080001774969 0  11.5999998583801 0  C 14.0639996733302 0  16 1.97820167634665  16 4.49591288961202  C 16 7.58583099004884  13.2800005475968 10.1035418345125  9.15999989142476 13.9291560320627  Z " stroke-width="2" stroke="#ffffff" fill="none" transform="matrix(1 0 0 1 2410 1976 )" mask="url(#clip22)" />
  </g>
</svg>