<?xml version="1.0" encoding="utf-8"?>
<svg version="1.1" xmlns:xlink="http://www.w3.org/1999/xlink" width="26px" height="26px" xmlns="http://www.w3.org/2000/svg">
  <g transform="matrix(1 0 0 1 -4955 -2254 )">
    <path d="M 24.0530344893293 19.8466594416921  C 21.8724849049638 23.4723536049447  17.7314229825648 26  12.999998064739 26  C 5.82029809719179 26  0 20.1797004513624  0 12.999998064739  C 0 5.82029809719179  5.82029809719179 0  12.999998064739 0  C 20.1797004513624 0  26 5.82029809719179  26 12.999998064739  C 26 15.4482774687976  25.3232101812595 17.7384847501429  24.0530344893293 19.8466594416921  Z M 2.36363689143483 12.999998064739  C 2.36363689143483 18.8742991377668  7.12569892697218 23.6363650438262  12.999998064739 23.6363650438262  C 18.8742991377668 23.6363650438262  23.6363650438262 18.8742991377668  23.6363650438262 12.999998064739  C 23.6363650438262 7.12569892697218  18.8742991377668 2.36363689143483  12.999998064739 2.36363689143483  C 7.12569892697218 2.36363689143483  2.36363689143483 7.12569892697218  2.36363689143483 12.999998064739  Z M 8.90910584984757 9.72078336390053  C 9.02128132145579 9.32817308379382  9.32817308379382 9.02128132145579  9.72078336390053 8.90910584984757  C 9.72078336390053 8.90910584984757  17.9935095810309 6.54547089367378  17.9935095810309 6.54547089367378  C 18.8850204839939 6.29075376929306  19.7092442954459 7.11498145126715  19.4545252358041 8.00648848370808  C 19.4545252358041 8.00648848370808  17.0908922148914 16.2792166360995  17.0908922148914 16.2792166360995  C 16.9787186785442 16.6718230456841  16.6718230456841 16.9787186785442  16.2792166360995 17.0908922148914  C 16.2792166360995 17.0908922148914  8.00648848370808 19.4545252358041  8.00648848370808 19.4545252358041  C 7.11498145126715 19.7092442954459  6.29075376929306 18.8850204839939  6.54547089367378 17.9935095810309  C 6.54547089367378 17.9935095810309  8.90910584984757 9.72078336390053  8.90910584984757 9.72078336390053  Z M 11.0014268828601 11.0014268828601  L 9.40257225967035 16.5974277403296  L 14.9985731171399 14.9985731171399  L 16.5974277403296 9.40257225967035  L 11.0014268828601 11.0014268828601  Z M 14.1818155428258 12.999998064739  C 14.1818155428258 13.6526996891673  13.6526996891673 14.1818155428258  12.999998064739 14.1818155428258  C 12.3472983755716 14.1818155428258  11.8181805866521 13.6526996891673  11.8181805866521 12.999998064739  C 11.8181805866521 12.3472983755716  12.3472983755716 11.8181805866521  12.999998064739 11.8181805866521  C 13.6526996891673 11.8181805866521  14.1818155428258 12.3472983755716  14.1818155428258 12.999998064739  Z " fill-rule="nonzero" fill="#ffffff" stroke="none" transform="matrix(1 0 0 1 4955 2254 )" />
  </g>
</svg>