<?xml version="1.0" encoding="utf-8"?>
<svg version="1.1" xmlns:xlink="http://www.w3.org/1999/xlink" width="14px" height="18px" xmlns="http://www.w3.org/2000/svg">
  <g transform="matrix(1 0 0 1 -3296 -3403 )">
    <path d="M 5.3666659732022 8.28246021270752  C 5.44444464544864 8.52847385406494  5.44444464544864 8.77448844909668  5.44444464544864 9.02050113677979  C 5.44444464544864 9.26651382446289  5.40555576158485 9.51252841949463  5.3666659732022 9.75854206085205  C 5.3666659732022 9.75854206085205  9.48888947180104 12.9977226257324  9.48888947180104 12.9977226257324  C 9.95555426912873 12.5466976165771  10.6166652948131 12.2596817016602  11.2777781295351 12.2596817016602  C 12.7944446002227 12.2596817016602  14 13.5307521820068  14 15.1298408508301  C 14 16.7289295196533  12.7944446002227 18  11.2777781295351 18  C 9.76110984980981 18  8.55555535455137 16.7289295196533  8.55555535455137 15.1298408508301  C 8.55555535455137 14.8838272094727  8.59444333389629 14.6378135681152  8.63333312227894 14.3917999267578  C 8.63333312227894 14.3917999267578  4.51111143271782 11.1526184082031  4.51111143271782 11.1526184082031  C 4.04444482635241 11.6036434173584  3.422221780013 11.8906593322754  2.72222187046489 11.8906593322754  C 1.20555539977731 11.8906593322754  0 10.6195907592773  0 9.02050113677979  C 0 7.42141246795654  1.20555539977731 6.15034198760986  2.72222187046489 6.15034198760986  C 3.422221780013 6.15034198760986  4.04444482635241 6.43735790252686  4.51111143271782 6.88838291168213  C 4.51111143271782 6.88838291168213  8.63333312227894 3.64920234680176  8.63333312227894 3.64920234680176  C 8.59444333389629 3.36218738555908  8.55555535455137 3.11617279052734  8.55555535455137 2.87015914916992  C 8.55555535455137 1.27107048034668  9.76110984980981 0  11.2777781295351 0  C 12.7944446002227 0  14 1.27107048034668  14 2.87015914916992  C 14 4.46924781799316  12.7944446002227 5.74031925201416  11.2777781295351 5.74031925201416  C 10.577778219987 5.74031925201416  9.95555426912873 5.45330238342285  9.48888947180104 5.00227832794189  C 9.48888947180104 5.00227832794189  5.3666659732022 8.28246021270752  5.3666659732022 8.28246021270752  Z M 11.2777781295351 4.10022830963135  C 11.9388891552194 4.10022830963135  12.4444446454486 3.56719875335693  12.4444446454486 2.87015914916992  C 12.4444446454486 2.17312049865723  11.9388891552194 1.64009094238281  11.2777781295351 1.64009094238281  C 10.6166652948131 1.64009094238281  10.1111098045839 2.17312049865723  10.1111098045839 2.87015914916992  C 10.1111098045839 3.56719875335693  10.6166652948131 4.10022830963135  11.2777781295351 4.10022830963135  Z M 11.2777781295351 16.4009113311768  C 11.9388891552194 16.4009113311768  12.4444446454486 15.8678817749023  12.4444446454486 15.1708431243896  C 12.4444446454486 14.4738044738769  11.9388891552194 13.9407749176025  11.2777781295351 13.9407749176025  C 10.6166652948131 13.9407749176025  10.1111098045839 14.4738044738769  10.1111098045839 15.1708431243896  C 10.1111098045839 15.8678817749023  10.6166652948131 16.4009113311768  11.2777781295351 16.4009113311768  Z M 2.72222187046489 10.2505693435669  C 3.38333380066808 10.2505693435669  3.88888929089727 9.71753978729248  3.88888929089727 9.02050113677979  C 3.88888929089727 8.32346248626709  3.38333380066808 7.79043292999268  2.72222187046489 7.79043292999268  C 2.06111084478056 7.79043292999268  1.55555535455137 8.32346248626709  1.55555535455137 9.02050113677979  C 1.55555535455137 9.71753978729248  2.06111084478056 10.2505693435669  2.72222187046489 10.2505693435669  Z " fill-rule="nonzero" fill="#78849e" stroke="none" transform="matrix(1 0 0 1 3296 3403 )" />
  </g>
</svg>