<?xml version="1.0" encoding="utf-8"?>
<svg version="1.1" xmlns:xlink="http://www.w3.org/1999/xlink" width="18px" height="20px" xmlns="http://www.w3.org/2000/svg">
  <g transform="matrix(1 0 0 1 -9747 -2624 )">
    <path d="M 13.0499997659163 18.1818216930739  L 4.95000023408375 18.1818216930739  C 4.95000023408375 18.1818216930739  4.95000023408375 18.6363638856194  4.95000023408375 18.6363638856194  C 4.95000023408375 19.4090938145466  4.36499875935618 20  3.60000000000002 20  C 2.83500124064381 20  2.25000023408376 19.4090938145466  2.25000023408376 18.6363638856194  C 2.25000023408376 18.6363638856194  2.25000023408376 18.0454577001661  2.25000023408376 18.0454577001661  C 0.945000257492097 17.6363676287915  0 16.4545457211409  0 14.9999996423721  C 0 14.9999996423721  0 3.18181871284142  0 3.18181871284142  C 0 1.40909109657459  1.39500002340839 0  3.15000023408373 0  C 3.15000023408373 0  14.8500025749211 0  14.8500025749211 0  C 16.6049995084242 0  18 1.40909109657459  18 3.18181871284142  C 18 3.18181871284142  18 14.9999996423721  18 14.9999996423721  C 18 16.4545457211409  17.0550002106754 17.6818197499624  15.7500002340838 18.0454577001661  C 15.7500002340838 18.0454577001661  15.7500002340838 18.6363638856194  15.7500002340838 18.6363638856194  C 15.7500002340838 19.4090938145466  15.1649987593562 20  14.4000018726699 20  C 13.6349993679739 20  13.0499997659163 19.4090938145466  13.0499997659163 18.6363638856194  C 13.0499997659163 18.6363638856194  13.0499997659163 18.1818216930739  13.0499997659163 18.1818216930739  Z M 8.10000046816748 1.81818164478644  C 8.10000046816748 1.81818164478644  3.15000023408373 1.81818164478644  3.15000023408373 1.81818164478644  C 2.3850005383926 1.81818164478644  1.79999953183255 2.40909164493745  1.79999953183255 3.18181871284142  C 1.79999953183255 3.18181871284142  1.79999953183255 8.63636507771241  1.79999953183255 8.63636507771241  C 1.79999953183255 9.4090930992909  2.3850005383926 10.000001192093  3.15000023408373 10.000001192093  C 3.15000023408373 10.000001192093  8.10000046816748 10.000001192093  8.10000046816748 10.000001192093  L 8.10000046816748 1.81818164478644  Z M 9.90000046816749 1.81818164478644  L 9.90000046816749 10.000001192093  C 9.90000046816749 10.000001192093  14.8500025749211 10.000001192093  14.8500025749211 10.000001192093  C 15.6149975889375 10.000001192093  16.200000936335 9.4090930992909  16.200000936335 8.63636507771241  C 16.200000936335 8.63636507771241  16.200000936335 3.18181871284142  16.200000936335 3.18181871284142  C 16.200000936335 2.40909164493745  15.6149975889375 1.81818164478644  14.8500025749211 1.81818164478644  C 14.8500025749211 1.81818164478644  9.90000046816749 1.81818164478644  9.90000046816749 1.81818164478644  Z M 16.200000936335 11.5000012993814  C 15.7949967462361 11.6818212281576  15.3449960439848 11.8181852210655  14.8500025749211 11.8181852210655  C 14.8500025749211 11.8181852210655  12.5261704900934 11.8181852210655  9.94981171768956 11.8181852210655  C 6.74525070367929 11.8181852210655  3.15000023408373 11.8181852210655  3.15000023408373 11.8181852210655  C 2.65500021067538 11.8181852210655  2.20500044475909 11.7272733493285  1.79999953183255 11.5000012993814  C 1.79999953183255 11.5000012993814  1.79999953183255 14.9999996423721  1.79999953183255 14.9999996423721  C 1.79999953183255 15.772731478648  2.3850005383926 16.3636376641014  3.15000023408373 16.3636376641014  C 3.15000023408373 16.3636376641014  14.8500025749211 16.3636376641014  14.8500025749211 16.3636376641014  C 15.6149975889375 16.3636376641014  16.200000936335 15.772731478648  16.200000936335 14.9999996423721  C 16.200000936335 14.9999996423721  16.200000936335 11.5000012993814  16.200000936335 11.5000012993814  Z M 4.04999976591625 15.4545494643128  C 3.28500007022512 15.4545494643128  2.70000046816745 14.8636375568131  2.70000046816745 14.0909114425835  C 2.70000046816745 13.3181815136563  3.28500007022512 12.7272753282029  4.04999976591625 12.7272753282029  C 4.81500039794236 12.7272753282029  5.39999999999998 13.3181815136563  5.39999999999998 14.0909114425835  C 5.39999999999998 14.8636375568131  4.81500039794236 15.4545494643128  4.04999976591625 15.4545494643128  Z M 13.9500011704187 15.4545494643128  C 13.1850005383926 15.4545494643128  12.5999990636651 14.8636375568131  12.5999990636651 14.0909114425835  C 12.5999990636651 13.3181815136563  13.1850005383926 12.7272753282029  13.9500011704187 12.7272753282029  C 14.714998057105 12.7272753282029  15.3000014045024 13.3181815136563  15.3000014045024 14.0909114425835  C 15.3000014045024 14.8636375568131  14.714998057105 15.4545494643128  13.9500011704187 15.4545494643128  Z " fill-rule="nonzero" fill="#000000" stroke="none" transform="matrix(1 0 0 1 9747 2624 )" />
  </g>
</svg>