<?xml version="1.0" encoding="utf-8"?>
<svg version="1.1" xmlns:xlink="http://www.w3.org/1999/xlink" width="16px" height="21px" xmlns="http://www.w3.org/2000/svg">
  <g transform="matrix(1 0 0 1 -2103 -3602 )">
    <path d="M 7.99999856656659 0  C 12.3258358992289 0  16.181472670069 3.62727257736401  15.993392827589 7.63636385681763  C 15.805312985109 12.0272723833645  10.1629157994643 21.0000004849988  7.99999856656659 21.0000004849988  C 5.83708133366884 21.0000004849988  0.194686059268768 12.1227279076348  0.00660669459990439 7.63636385681763  C -0.181473386785667 3.62727257736401  3.67416314514881 0  7.99999856656659 0  Z M 7.99999856656659 18.9954538752744  C 8.18807936466887 18.8045467067242  8.47019912838887 18.5181840139037  8.8463578577266 18.1363638568176  C 9.50463730640661 17.3727293626312  10.3509965975666 16.2272747113587  11.1033150118643 15.0818181200911  C 12.8900744710466 12.3136360461826  14.0185535259267 9.45000038799904  14.1125944027889 7.63636288682003  C 14.2066352796512 4.67727218936496  11.2913958099666 1.90909011545651  7.99999856656659 1.90909011545651  C 4.70860227878882 1.90909011545651  1.79336472034879 4.67727218936496  1.88740511939993 7.63636288682003  C 1.98144408501765 9.54545397227414  3.10992409551994 12.3136360461826  4.89668212126883 15.0818181200911  C 5.64900053556656 16.2272747113587  6.40132086110884 17.372727422636  7.15364023102885 18.1363638568176  C 7.43575903912658 18.5181840139037  7.71787880284658 18.8045467067242  7.99999856656659 18.9954538752744  Z M 7.99999856656659 11.4545460277259  C 6.21324101862884 11.4545460277259  4.70860227878882 9.92727218936496  4.70860227878882 8.11363662818117  C 4.70860227878882 6.30000009699976  6.21324101862884 4.77272722863647  7.99999856656659 4.77272722863647  C 9.78675707012661 4.77272722863647  11.2913958099666 6.30000009699976  11.2913958099666 8.11363662818117  C 11.2913958099666 9.92727218936496  9.78675707012661 11.4545460277259  7.99999856656659 11.4545460277259  Z M 7.99999856656659 9.54545494227175  C 8.75231889210887 9.54545494227175  9.41059834078888 8.87727403236042  9.41059834078888 8.11363662818117  C 9.41059834078888 7.35000019399952  8.75231889210887 6.68181831409058  7.99999856656659 6.68181831409058  C 7.24767919664657 6.68181831409058  6.58940070358885 7.35000019399952  6.58940070358885 8.11363662818117  C 6.58940070358885 8.87727403236042  7.24767919664657 9.54545494227175  7.99999856656659 9.54545494227175  Z " fill-rule="nonzero" fill="#ffba19" stroke="none" transform="matrix(1 0 0 1 2103 3602 )" />
  </g>
</svg>