<?xml version="1.0" encoding="utf-8"?>
<svg version="1.1" xmlns:xlink="http://www.w3.org/1999/xlink" width="36px" height="36px" xmlns="http://www.w3.org/2000/svg">
  <defs>
    <filter x="9561px" y="2098px" width="36px" height="36px" filterUnits="userSpaceOnUse" id="filter131">
      <feOffset dx="0" dy="2" in="SourceAlpha" result="shadowOffsetInner" />
      <feGaussianBlur stdDeviation="6" in="shadowOffsetInner" result="shadowGaussian" />
      <feComposite in2="shadowGaussian" operator="atop" in="SourceAlpha" result="shadowComposite" />
      <feColorMatrix type="matrix" values="0 0 0 0 0.811764705882353  0 0 0 0 0.8  0 0 0 0 0.83921568627451  0 0 0 0.6 0  " in="shadowComposite" />
    </filter>
    <g id="widget132">
      <path d="M 0 4  C 0 1.79086089134216  1.79086089134216 0  4 0  C 4 0  8 0  8 0  C 10.2091388702393 0  12 1.79086089134216  12 4  C 12 4  12 8  12 8  C 12 10.2091388702393  10.2091388702393 12  8 12  C 8 12  4 12  4 12  C 1.79086089134216 12  0 10.2091388702393  0 8  C 0 8  0 4  0 4  Z " fill-rule="nonzero" fill="#fcb411" stroke="none" transform="matrix(1 0 0 1 9573 2108 )" />
    </g>
  </defs>
  <g transform="matrix(1 0 0 1 -9561 -2098 )">
    <use xlink:href="#widget132" filter="url(#filter131)" />
    <use xlink:href="#widget132" />
  </g>
</svg>