<?xml version="1.0" encoding="utf-8"?>
<svg version="1.1" xmlns:xlink="http://www.w3.org/1999/xlink" width="405px" height="841px" xmlns="http://www.w3.org/2000/svg">
  <defs>
    <mask fill="white" id="clip21">
      <path d="M 58 841  C 25.52 841  0 815.48  0 783  L 0 58  C 0 25.52  25.52 0  58 0  L 347 0  C 379.48 0  405 25.52  405 58  L 405 783  C 405 815.48  379.48 841  347 841  L 58 841  Z " fill-rule="evenodd" />
    </mask>
  </defs>
  <g transform="matrix(1 0 0 1 -2069 -1370 )">
    <path d="M 58 841  C 25.52 841  0 815.48  0 783  L 0 58  C 0 25.52  25.52 0  58 0  L 347 0  C 379.48 0  405 25.52  405 58  L 405 783  C 405 815.48  379.48 841  347 841  L 58 841  Z " fill-rule="nonzero" fill="#ffffff" stroke="none" fill-opacity="0" transform="matrix(1 0 0 1 2069 1370 )" />
    <path d="M 58 841  C 25.52 841  0 815.48  0 783  L 0 58  C 0 25.52  25.52 0  58 0  L 347 0  C 379.48 0  405 25.52  405 58  L 405 783  C 405 815.48  379.48 841  347 841  L 58 841  Z " stroke-width="32" stroke="#111111" fill="none" transform="matrix(1 0 0 1 2069 1370 )" mask="url(#clip21)" />
  </g>
</svg>