<?xml version="1.0" encoding="utf-8"?>
<svg version="1.1" xmlns:xlink="http://www.w3.org/1999/xlink" width="163px" height="47px" xmlns="http://www.w3.org/2000/svg">
  <g transform="matrix(1 0 0 1 -1265 -4601 )">
    <path d="M 156.345487794139 47  C 156.345487794139 47  6.65457328669206 47  6.65457328669206 47  C 2.98108049366802 46.9965120508044  0.00415349650289827 44.4966270516326  0 41.4117283383049  C 0 41.4117283383049  0 5.58825883835249  0 5.58825883835249  C 0.00415349650289827 2.50339859505273  2.98108049366802 0.00351359588081494  6.65457328669206 0  C 6.65457328669206 0  156.345487794139 0  156.345487794139 0  C 160.018950046748 0.00346230251026821  162.995846503497 2.50339859505273  163 5.58825883835249  C 163 5.58825883835249  163 41.4117283383049  163 41.4117283383049  C 162.995846503497 44.4966270516326  160.018950046748 46.9965120508044  156.345365632477 47  Z " fill-rule="nonzero" fill="#ffffff" stroke="none" transform="matrix(1 0 0 1 1265 4601 )" />
  </g>
</svg>