<?xml version="1.0" encoding="utf-8"?>
<svg version="1.1" xmlns:xlink="http://www.w3.org/1999/xlink" width="100px" height="100px" xmlns="http://www.w3.org/2000/svg">
  <defs>
    <mask fill="white" id="clip81">
      <path d="M 0 44  C 0 19.6994724273682  19.6994724273682 0  44 0  C 68.3005294799805 0  88 19.6994724273682  88 44  C 88 68.3005294799805  68.3005294799805 88  44 88  C 19.6994724273682 88  0 68.3005294799805  0 44  Z " fill-rule="evenodd" />
    </mask>
    <filter x="1130px" y="4562px" width="100px" height="100px" filterUnits="userSpaceOnUse" id="filter82">
      <feOffset dx="0" dy="3" in="SourceAlpha" result="shadowOffsetInner" />
      <feGaussianBlur stdDeviation="3" in="shadowOffsetInner" result="shadowGaussian" />
      <feComposite in2="shadowGaussian" operator="atop" in="SourceAlpha" result="shadowComposite" />
      <feColorMatrix type="matrix" values="0 0 0 0 0  0 0 0 0 0  0 0 0 0 0  0 0 0 0.16078431372549 0  " in="shadowComposite" />
    </filter>
    <g id="widget83">
      <path d="M 0 44  C 0 19.6994724273682  19.6994724273682 0  44 0  C 68.3005294799805 0  88 19.6994724273682  88 44  C 88 68.3005294799805  68.3005294799805 88  44 88  C 19.6994724273682 88  0 68.3005294799805  0 44  Z " fill-rule="nonzero" fill="#ffffff" stroke="none" fill-opacity="0" transform="matrix(1 0 0 1 1136 4565 )" />
      <path d="M 0 44  C 0 19.6994724273682  19.6994724273682 0  44 0  C 68.3005294799805 0  88 19.6994724273682  88 44  C 88 68.3005294799805  68.3005294799805 88  44 88  C 19.6994724273682 88  0 68.3005294799805  0 44  Z " stroke-width="10" stroke="#fea800" fill="none" transform="matrix(1 0 0 1 1136 4565 )" mask="url(#clip81)" />
    </g>
  </defs>
  <g transform="matrix(1 0 0 1 -1130 -4562 )">
    <use xlink:href="#widget83" filter="url(#filter82)" />
    <use xlink:href="#widget83" />
  </g>
</svg>