<?xml version="1.0" encoding="utf-8"?>
<svg version="1.1" xmlns:xlink="http://www.w3.org/1999/xlink" width="19px" height="19px" xmlns="http://www.w3.org/2000/svg">
  <g transform="matrix(1 0 0 1 -2235 -1464 )">
    <path d="M 17.3270429518731 19  L 19 17.3270410344328  C 19 17.3270410344328  15.056602887221 13.3836458390941  15.056602887221 13.3836458390941  C 16.1320750013826 11.9496842985055  16.7295589766278 10.2767291678188  16.7295589766278 8.36477948831391  C 16.7295589766278 3.70440208460069  13.0251554539469 0  8.36477948831391 0  C 3.70440280364079 0  0 3.70440208460069  0 8.36477948831391  C 0 13.0251544952268  3.70440232428073 16.7295589766278  8.36477948831391 16.7295589766278  C 10.2767301265389 16.7295589766278  11.9496842985055 16.1320730839423  13.3836467978142 15.056602887221  C 13.3836467978142 15.056602887221  17.3270429518731 19  17.3270429518731 19  Z M 8.36477948831391 14.3396201994864  C 5.01886730950029 14.3396201994864  2.3899368597011 11.7106897496873  2.3899368597011 8.36477948831391  C 2.3899368597011 5.01886683014022  5.01886730950029 2.38993662002106  8.36477948831391 2.38993662002106  C 11.7106926258477 2.38993662002106  14.3396221169267 5.01886683014022  14.3396221169267 8.36477948831391  C 14.3396221169267 11.7106897496873  11.7106926258477 14.3396201994864  8.36477948831391 14.3396201994864  Z " fill-rule="nonzero" fill="#808080" stroke="none" transform="matrix(1 0 0 1 2235 1464 )" />
  </g>
</svg>