<?xml version="1.0" encoding="utf-8"?>
<svg version="1.1" xmlns:xlink="http://www.w3.org/1999/xlink" width="26px" height="26px" xmlns="http://www.w3.org/2000/svg">
  <g transform="matrix(1 0 0 1 -8196 -1982 )">
    <path d="M 23.7106903551947 26  L 26 23.7106877313291  C 26 23.7106877313291  20.6037723719866 18.3144627271814  20.6037723719866 18.3144627271814  C 22.0754710545235 16.3521995663759  22.8930807048591 14.0628925454363  22.8930807048591 11.4465403524296  C 22.8930807048591 5.0691817999799  17.82389693698 0  11.4465403524296 0  C 5.06918278392951 0  0 5.0691817999799  0 11.4465403524296  C 0 17.8238956250472  5.0691821279631 22.8930807048591  11.4465403524296 22.8930807048591  C 14.0628938573691 22.8930807048591  16.3521995663759 22.0754684306579  18.3144640391142 20.6037723719866  C 18.3144640391142 20.6037723719866  23.7106903551947 26  23.7106903551947 26  Z M 11.4465403524296 19.6226381677183  C 6.86792368668461 19.6226381677183  3.27043991327519 16.0251543943089  3.27043991327519 11.4465403524296  C 3.27043991327519 6.8679230307182  6.86792368668461 3.27043958529198  11.4465403524296 3.27043958529198  C 16.0251583301073 3.27043958529198  19.6226407915839 6.8679230307182  19.6226407915839 11.4465403524296  C 19.6226407915839 16.0251543943089  16.0251583301073 19.6226381677183  11.4465403524296 19.6226381677183  Z " fill-rule="nonzero" fill="#ffbb1d" stroke="none" transform="matrix(1 0 0 1 8196 1982 )" />
  </g>
</svg>