<?xml version="1.0" encoding="utf-8"?>
<svg version="1.1" xmlns:xlink="http://www.w3.org/1999/xlink" width="20px" height="16px" xmlns="http://www.w3.org/2000/svg">
  <g transform="matrix(1 0 0 1 -294 -129 )">
    <path d="M 14.3870192307692 5.60227272727273  C 14.5392628205128 5.45833333333333  14.6153846153846 5.28787878787879  14.6153846153846 5.09090909090909  C 14.6153846153846 4.89393939393939  14.5392628205128 4.72348484848485  14.3870192307692 4.57954545454546  C 14.2347756410256 4.43560606060606  14.0544871794872 4.36363636363636  13.8461538461538 4.36363636363636  L 12.3076923076923 4.36363636363636  L 12.3076923076923 2.90909090909091  C 12.3076923076923 2.71212121212121  12.2315705128205 2.54166666666666  12.0793269230769 2.39772727272727  C 11.9270833333333 2.25378787878788  11.7467948717949 2.18181818181818  11.5384615384615 2.18181818181818  C 11.3301282051282 2.18181818181818  11.1498397435897 2.25378787878788  10.9975961538462 2.39772727272727  C 10.8453525641026 2.54166666666666  10.7692307692308 2.71212121212121  10.7692307692308 2.90909090909091  L 10.7692307692308 4.36363636363636  L 9.23076923076923 4.36363636363636  C 9.0224358974359 4.36363636363636  8.84214743589744 4.43560606060606  8.68990384615385 4.57954545454546  C 8.53766025641026 4.72348484848485  8.46153846153846 4.89393939393939  8.46153846153846 5.09090909090909  C 8.46153846153846 5.28787878787879  8.53766025641026 5.45833333333333  8.68990384615385 5.60227272727273  C 8.84214743589744 5.74621212121212  9.0224358974359 5.81818181818182  9.23076923076923 5.81818181818182  L 10.7692307692308 5.81818181818182  L 10.7692307692308 7.27272727272727  C 10.7692307692308 7.46969696969697  10.8453525641026 7.64015151515151  10.9975961538462 7.78409090909091  C 11.1498397435897 7.9280303030303  11.3301282051282 8  11.5384615384615 8  C 11.7467948717949 8  11.9270833333333 7.9280303030303  12.0793269230769 7.78409090909091  C 12.2315705128205 7.64015151515151  12.3076923076923 7.46969696969697  12.3076923076923 7.27272727272727  L 12.3076923076923 5.81818181818182  L 13.8461538461538 5.81818181818182  C 14.0544871794872 5.81818181818182  14.2347756410256 5.74621212121212  14.3870192307692 5.60227272727273  Z M 7.24158653846154 13.5170454545455  C 7.54206730769231 13.8011363636364  7.69230769230769 14.1439393939394  7.69230769230769 14.5454545454545  C 7.69230769230769 14.9469696969697  7.54206730769231 15.2897727272727  7.24158653846154 15.5738636363636  C 6.94110576923077 15.8579545454545  6.57852564102564 16  6.15384615384615 16  C 5.72916666666667 16  5.36658653846154 15.8579545454545  5.06610576923077 15.5738636363636  C 4.765625 15.2897727272727  4.61538461538462 14.9469696969697  4.61538461538462 14.5454545454545  C 4.61538461538462 14.1439393939394  4.765625 13.8011363636364  5.06610576923077 13.5170454545455  C 5.36658653846154 13.2329545454545  5.72916666666667 13.0909090909091  6.15384615384615 13.0909090909091  C 6.57852564102564 13.0909090909091  6.94110576923077 13.2329545454545  7.24158653846154 13.5170454545455  Z M 18.0108173076923 13.5170454545455  C 18.3112980769231 13.8011363636364  18.4615384615385 14.1439393939394  18.4615384615385 14.5454545454545  C 18.4615384615385 14.9469696969697  18.3112980769231 15.2897727272727  18.0108173076923 15.5738636363636  C 17.7103365384615 15.8579545454545  17.3477564102564 16  16.9230769230769 16  C 16.4983974358974 16  16.1358173076923 15.8579545454545  15.8353365384615 15.5738636363636  C 15.5348557692308 15.2897727272727  15.3846153846154 14.9469696969697  15.3846153846154 14.5454545454545  C 15.3846153846154 14.1439393939394  15.5348557692308 13.8011363636364  15.8353365384615 13.5170454545455  C 16.1358173076923 13.2329545454545  16.4983974358974 13.0909090909091  16.9230769230769 13.0909090909091  C 17.3477564102564 13.0909090909091  17.7103365384615 13.2329545454545  18.0108173076923 13.5170454545455  Z M 19.7716346153846 1.67045454545454  C 19.9238782051282 1.81439393939394  20 1.98484848484848  20 2.18181818181818  L 20 8  C 20 8.18181818181818  19.9358974358974 8.34280303030303  19.8076923076923 8.48295454545455  C 19.6794871794872 8.62310606060606  19.5152243589744 8.70454545454545  19.3149038461538 8.72727272727273  L 6.76682692307692 10.1136363636364  C 6.77483974358974 10.1666666666667  6.79286858974359 10.2481060606061  6.82091346153846 10.3579545454545  C 6.84895833333333 10.467803030303  6.8729967948718 10.5681818181818  6.89302884615385 10.6590909090909  C 6.9130608974359 10.75  6.92307692307692 10.8333333333333  6.92307692307692 10.9090909090909  C 6.92307692307692 11.030303030303  6.82692307692308 11.2727272727273  6.63461538461538 11.6363636363636  L 17.6923076923077 11.6363636363636  C 17.900641025641 11.6363636363636  18.0809294871795 11.7083333333333  18.2331730769231 11.8522727272727  C 18.3854166666667 11.9962121212121  18.4615384615385 12.1666666666667  18.4615384615385 12.3636363636364  C 18.4615384615385 12.5606060606061  18.3854166666667 12.7310606060606  18.2331730769231 12.875  C 18.0809294871795 13.0189393939394  17.900641025641 13.0909090909091  17.6923076923077 13  L 5.38461538461538 13  C 5.17628205128205 13.0909090909091  4.99599358974359 13.0189393939394  4.84375 12.875  C 4.69150641025641 12.7310606060606  4.61538461538462 12.5606060606061  4.61538461538462 12.3636363636364  C 4.61538461538462 12.2575757575758  4.65945512820513 12.1079545454545  4.74759615384615 11.9147727272727  C 4.83573717948718 11.7215909090909  4.95392628205128 11.4962121212121  5.10216346153846 11.2386363636364  C 5.25040064102564 10.9810606060606  5.33253205128205 10.8371212121212  5.34855769230769 10.8068181818182  L 3.22115384615385 1.45454545454546  L 0.769230769230769 1.45454545454546  C 0.560897435897436 1.45454545454546  0.380608974358974 1.38257575757576  0.228365384615385 1.23863636363636  C 0.0761217948717949 1.09469696969697  0 0.924242424242424  0 0.727272727272727  C 0 0.530303030303029  0.0761217948717949 0.359848484848483  0.228365384615385 0.215909090909092  C 0.380608974358974 0.0719696969696955  0.560897435897436 0  0.769230769230769 0  L 3.84615384615385 0  C 3.97435897435897 0  4.08854166666667 0.024621212121211  4.18870192307692 0.0738636363636367  C 4.28886217948718 0.123106060606061  4.36899038461538 0.181818181818182  4.42908653846154 0.25  C 4.48918269230769 0.318181818181818  4.54126602564103 0.410984848484846  4.58533653846154 0.528409090909092  C 4.62940705128205 0.645833333333332  4.65945512820513 0.746212121212119  4.67548076923077 0.829545454545455  C 4.69150641025641 0.912878787878787  4.71354166666667 1.02462121212121  4.74158653846154 1.16477272727273  C 4.76963141025641 1.30492424242424  4.78766025641026 1.40151515151515  4.79567307692308 1.45454545454546  L 19.2307692307692 1.45454545454546  C 19.4391025641026 1.45454545454546  19.619391025641 1.52651515151515  19.7716346153846 1.67045454545454  Z " fill-rule="nonzero" fill="#f59a23" stroke="none" transform="matrix(1 0 0 1 294 129 )" />
  </g>
</svg>