<?xml version="1.0" encoding="utf-8"?>
<svg version="1.1" xmlns:xlink="http://www.w3.org/1999/xlink" width="10px" height="6px" xmlns="http://www.w3.org/2000/svg">
  <g transform="matrix(1 0 0 1 -8204 -2031 )">
    <path d="M 9.814453125 4.86458333333333  C 9.93815104166667 4.99652777777778  10 5.15277777777778  10 5.33333333333333  C 10 5.51388888888889  9.93815104166667 5.67013888888889  9.814453125 5.80208333333333  C 9.69075520833333 5.93402777777778  9.54427083333333 6  9.375 6  L 0.625 6  C 0.455729166666667 6  0.309244791666667 5.93402777777778  0.185546875 5.80208333333333  C 0.0618489583333333 5.67013888888889  0 5.51388888888889  0 5.33333333333333  C 0 5.15277777777778  0.0618489583333333 4.99652777777778  0.185546875 4.86458333333333  L 4.560546875 0.197916666666667  C 4.68424479166667 0.0659722222222214  4.83072916666667 0  5 0  C 5.16927083333333 0  5.31575520833333 0.0659722222222214  5.439453125 0.197916666666667  L 9.814453125 4.86458333333333  Z " fill-rule="nonzero" fill="#000000" stroke="none" transform="matrix(1 0 0 1 8204 2031 )" />
  </g>
</svg>