<?xml version="1.0" encoding="utf-8"?>
<svg version="1.1" xmlns:xlink="http://www.w3.org/1999/xlink" width="34px" height="28px" xmlns="http://www.w3.org/2000/svg">
  <g transform="matrix(1 0 0 1 -8435 -1924 )">
    <path d="M 12.3004807692308 23.6647727272727  C 12.818108974359 24.1685606060606  13.0769230769231 24.7651515151515  13.0769230769231 25.4545454545455  C 13.0769230769231 26.1439393939394  12.818108974359 26.7405303030303  12.3004807692308 27.2443181818182  C 11.7828525641026 27.7481060606061  11.1698717948718 28  10.4615384615385 28  C 9.75320512820513 28  9.14022435897436 27.7481060606061  8.62259615384615 27.2443181818182  C 8.10496794871795 26.7405303030303  7.84615384615385 26.1439393939394  7.84615384615385 25.4545454545455  C 7.84615384615385 24.7651515151515  8.10496794871795 24.1685606060606  8.62259615384615 23.6647727272727  C 9.14022435897436 23.1609848484849  9.75320512820513 22.9090909090909  10.4615384615385 22.9090909090909  C 11.1698717948718 22.9090909090909  11.7828525641026 23.1609848484849  12.3004807692308 23.6647727272727  Z M 30.6081730769231 23.6647727272727  C 31.1258012820513 24.1685606060606  31.3846153846154 24.7651515151515  31.3846153846154 25.4545454545455  C 31.3846153846154 26.1439393939394  31.1258012820513 26.7405303030303  30.6081730769231 27.2443181818182  C 30.0905448717949 27.7481060606061  29.4775641025641 28  28.7692307692308 28  C 28.0608974358974 28  27.4479166666667 27.7481060606061  26.9302884615385 27.2443181818182  C 26.4126602564103 26.7405303030303  26.1538461538462 26.1439393939394  26.1538461538462 25.4545454545455  C 26.1538461538462 24.7651515151515  26.4126602564103 24.1685606060606  26.9302884615385 23.6647727272727  C 27.4479166666667 23.1609848484849  28.0608974358974 22.9090909090909  28.7692307692308 22.9090909090909  C 29.4775641025641 22.9090909090909  30.0905448717949 23.1609848484849  30.6081730769231 23.6647727272727  Z M 33.6117788461538 2.92329545454545  C 33.8705929487179 3.17518939393939  34 3.47348484848484  34 3.81818181818182  L 34 14  C 34 14.3181818181818  33.8876201923077 14.5999053030303  33.6628605769231 14.8451704545455  C 33.4381009615385 15.0904356060606  33.1622596153846 15.2329545454545  32.8353365384615 15.2727272727273  L 11.5036057692308 17.6988636363636  C 11.6806891025641 18.4943181818182  11.7692307692308 18.9583333333333  11.7692307692308 19.0909090909091  C 11.7692307692308 19.3030303030303  11.6057692307692 19.7272727272727  11.2788461538462 20  L 30.0769230769231 20  C 30.4310897435897 20.3636363636364  30.7375801282051 20.4895833333333  30.9963942307692 20.7414772727273  C 31.2552083333333 20.9933712121212  31.3846153846154 21.2916666666667  31.3846153846154 21.6363636363636  C 31.3846153846154 21.9810606060606  31.2552083333333 22.2793560606061  30.9963942307692 22.53125  C 30.7375801282051 22.7831439393939  30.4310897435897 22.9090909090909  30.0769230769231 23  L 9.15384615384615 23  C 8.79967948717949 22.9090909090909  8.4931891025641 22.7831439393939  8.234375 22.53125  C 7.9755608974359 22.2793560606061  7.84615384615385 21.9810606060606  7.84615384615385 21.6363636363636  C 7.84615384615385 21.4905303030303  7.90064102564102 21.2817234848485  8.00961538461539 21.0099431818182  C 8.11858974358974 20.7381628787879  8.2275641025641 20.4995265151515  8.33653846153846 20.2940340909091  C 8.44551282051282 20.0885416666667  8.59194711538462 19.8233901515152  8.77584134615385 19.4985795454545  C 8.95973557692308 19.1737689393939  9.06530448717949 18.9782196969697  9.09254807692308 18.9119318181818  L 5.47596153846154 2.54545454545455  L 1.30769230769231 2.54545454545455  C 0.953525641025641 2.54545454545455  0.647035256410257 2.41950757575757  0.388221153846154 2.16761363636364  C 0.129407051282051 1.9157196969697  0 1.61742424242424  0 1.27272727272727  C 0 0.928030303030301  0.129407051282051 0.629734848484845  0.388221153846154 0.377840909090911  C 0.647035256410257 0.125946969696967  0.953525641025641 0  1.30769230769231 0  L 6.53846153846154 0  C 6.75641025641026 0  6.95052083333333 0.0430871212121193  7.12079326923077 0.129261363636364  C 7.29106570512821 0.215435606060606  7.42387820512821 0.318181818181818  7.51923076923077 0.4375  C 7.61458333333333 0.556818181818182  7.703125 0.71922348484848  7.78485576923077 0.924715909090911  C 7.86658653846154 1.13020833333333  7.92107371794872 1.30255681818182  7.94831730769231 1.44176136363636  C 7.9755608974359 1.58096590909091  8.01302083333333 1.77651515151515  8.06069711538462 2.02840909090909  C 8.1083733974359 2.28030303030303  8.13902243589744 2.45265151515151  8.15264423076923 3  L 32.6923076923077 3  C 33.0464743589744 2.54545454545455  33.3529647435897 2.67140151515151  33.6117788461538 2.92329545454545  Z " fill-rule="nonzero" fill="#7f7f7f" stroke="none" transform="matrix(1 0 0 1 8435 1924 )" />
  </g>
</svg>