<?xml version="1.0" encoding="utf-8"?>
<svg version="1.1" xmlns:xlink="http://www.w3.org/1999/xlink" width="25px" height="25px" xmlns="http://www.w3.org/2000/svg">
  <g transform="matrix(1 0 0 1 -8256 -4839 )">
    <path d="M 8268.5 4839  C 8275.5 4839  8281 4844.5  8281 4851.5  C 8281 4858.5  8275.5 4864  8268.5 4864  C 8261.5 4864  8256 4858.5  8256 4851.5  C 8256 4844.5  8261.5 4839  8268.5 4839  Z " fill-rule="nonzero" fill="#ffffff" stroke="none" />
    <path d="M 8268.5 4839.5  C 8275.22 4839.5  8280.5 4844.78  8280.5 4851.5  C 8280.5 4858.22  8275.22 4863.5  8268.5 4863.5  C 8261.78 4863.5  8256.5 4858.22  8256.5 4851.5  C 8256.5 4844.78  8261.78 4839.5  8268.5 4839.5  Z " stroke-width="1" stroke="#797979" fill="none" />
  </g>
</svg>