<?xml version="1.0" encoding="utf-8"?>
<svg version="1.1" xmlns:xlink="http://www.w3.org/1999/xlink" width="46px" height="20px" xmlns="http://www.w3.org/2000/svg">
  <defs>
    <mask fill="white" id="clip139">
      <path d="M 0 15  L 0 5  C 0 2.19999999999999  2.19999999999999 0  5 0  L 21.9166666666652 0  L 41 0  C 43.8 0  46 2.19999999999999  46 5  L 46 15  C 46 17.8  43.8 20  41 20  L 5 20  C 2.19999999999999 20  0 17.8  0 15  Z " fill-rule="evenodd" />
    </mask>
  </defs>
  <g transform="matrix(1 0 0 1 -8411 -4409 )">
    <path d="M 0 15  L 0 5  C 0 2.19999999999999  2.19999999999999 0  5 0  L 21.9166666666652 0  L 41 0  C 43.8 0  46 2.19999999999999  46 5  L 46 15  C 46 17.8  43.8 20  41 20  L 5 20  C 2.19999999999999 20  0 17.8  0 15  Z " fill-rule="nonzero" fill="#ffffff" stroke="none" transform="matrix(1 0 0 1 8411 4409 )" />
    <path d="M 0 15  L 0 5  C 0 2.19999999999999  2.19999999999999 0  5 0  L 21.9166666666652 0  L 41 0  C 43.8 0  46 2.19999999999999  46 5  L 46 15  C 46 17.8  43.8 20  41 20  L 5 20  C 2.19999999999999 20  0 17.8  0 15  Z " stroke-width="2" stroke="#f59a23" fill="none" transform="matrix(1 0 0 1 8411 4409 )" mask="url(#clip139)" />
  </g>
</svg>