<?xml version="1.0" encoding="utf-8"?>
<svg version="1.1" xmlns:xlink="http://www.w3.org/1999/xlink" width="25px" height="25px" xmlns="http://www.w3.org/2000/svg">
  <g transform="matrix(1 0 0 1 -8245 -4585 )">
    <path d="M 20.60546875 10.595703125  C 20.80078125 10.400390625  20.8984375 10.15625  20.8984375 9.86328125  C 20.8984375 9.55946180555556  20.80078125 9.30989583333333  20.60546875 9.11458333333333  L 19.1243489583333 7.64973958333333  C 18.9181857638889 7.44357638888889  18.6740451388889 7.34049479166667  18.3919270833333 7.34049479166667  C 18.1098090277778 7.34049479166667  17.8656684027778 7.44357638888889  17.6595052083333 7.64973958333333  L 11.0188802083333 14.2740885416667  L 7.34049479166667 10.595703125  C 7.13433159722222 10.3895399305556  6.89019097222222 10.2864583333333  6.60807291666667 10.2864583333333  C 6.32595486111111 10.2864583333333  6.08181423611111 10.3895399305556  5.87565104166667 10.595703125  L 4.39453125 12.060546875  C 4.19921875 12.255859375  4.1015625 12.5054253472222  4.1015625 12.8092447916667  C 4.1015625 13.1022135416667  4.19921875 13.3463541666667  4.39453125 13.5416666666667  L 10.2864583333333 19.43359375  C 10.4926215277778 19.6397569444444  10.7367621527778 19.7428385416667  11.0188802083333 19.7428385416667  C 11.3118489583333 19.7428385416667  11.5614149305556 19.6397569444444  11.767578125 19.43359375  L 20.60546875 10.595703125  Z M 23.3235677083333 6.2255859375  C 24.4411892361111 8.14073350694444  25 10.2322048611111  25 12.5  C 25 14.7677951388889  24.4411892361111 16.8592664930556  23.3235677083333 18.7744140625  C 22.2059461805556 20.6895616319444  20.6895616319444 22.2059461805556  18.7744140625 23.3235677083333  C 16.8592664930556 24.4411892361111  14.7677951388889 25  12.5 25  C 10.2322048611111 25  8.14073350694444 24.4411892361111  6.2255859375 23.3235677083333  C 4.31043836805556 22.2059461805556  2.79405381944444 20.6895616319444  1.67643229166667 18.7744140625  C 0.558810763888889 16.8592664930556  0 14.7677951388889  0 12.5  C 0 10.2322048611111  0.558810763888889 8.14073350694444  1.67643229166667 6.2255859375  C 2.79405381944444 4.31043836805556  4.31043836805556 2.79405381944444  6.2255859375 1.67643229166667  C 8.14073350694444 0.558810763888887  10.2322048611111 0  12.5 0  C 14.7677951388889 0  16.8592664930556 0.558810763888887  18.7744140625 1.67643229166667  C 20.6895616319444 2.79405381944444  22.2059461805556 4.31043836805556  23.3235677083333 6.2255859375  Z " fill-rule="nonzero" fill="#aaaaaa" stroke="none" fill-opacity="0.968627450980392" transform="matrix(1 0 0 1 8245 4585 )" />
  </g>
</svg>