<?xml version="1.0" encoding="utf-8"?>
<svg version="1.1" xmlns:xlink="http://www.w3.org/1999/xlink" width="88px" height="88px" xmlns="http://www.w3.org/2000/svg">
  <defs>
    <mask fill="white" id="clip49">
      <path d="M 0 44  C 0 19.6994724273682  19.6994724273682 0  44 0  C 68.3005294799805 0  88 19.6994724273682  88 44  C 88 68.3005294799805  68.3005294799805 88  44 88  C 19.6994724273682 88  0 68.3005294799805  0 44  Z " fill-rule="evenodd" />
    </mask>
  </defs>
  <g transform="matrix(1 0 0 1 -1119 -3468 )">
    <path d="M 0 44  C 0 19.6994724273682  19.6994724273682 0  44 0  C 68.3005294799805 0  88 19.6994724273682  88 44  C 88 68.3005294799805  68.3005294799805 88  44 88  C 19.6994724273682 88  0 68.3005294799805  0 44  Z " fill-rule="nonzero" fill="#ffffff" stroke="none" fill-opacity="0" transform="matrix(1 0 0 1 1119 3468 )" />
    <path d="M 0 44  C 0 19.6994724273682  19.6994724273682 0  44 0  C 68.3005294799805 0  88 19.6994724273682  88 44  C 88 68.3005294799805  68.3005294799805 88  44 88  C 19.6994724273682 88  0 68.3005294799805  0 44  Z " stroke-width="10" stroke="#ffb918" fill="none" transform="matrix(1 0 0 1 1119 3468 )" mask="url(#clip49)" />
  </g>
</svg>