<?xml version="1.0" encoding="utf-8"?>
<svg version="1.1" xmlns:xlink="http://www.w3.org/1999/xlink" width="33px" height="33px" xmlns="http://www.w3.org/2000/svg">
  <defs>
    <mask fill="white" id="clip51">
      <path d="M 0 16.5  C 0 7.38730239868164  7.38730239868164 0  16.5 0  C 25.6126976013184 0  33 7.38730239868164  33 16.5  C 33 25.6126976013184  25.6126976013184 33  16.5 33  C 7.38730239868164 33  0 25.6126976013184  0 16.5  Z " fill-rule="evenodd" />
    </mask>
  </defs>
  <g transform="matrix(1 0 0 1 -1284 -3531 )">
    <path d="M 0 16.5  C 0 7.38730239868164  7.38730239868164 0  16.5 0  C 25.6126976013184 0  33 7.38730239868164  33 16.5  C 33 25.6126976013184  25.6126976013184 33  16.5 33  C 7.38730239868164 33  0 25.6126976013184  0 16.5  Z " fill-rule="nonzero" fill="#ffffff" stroke="none" transform="matrix(1 0 0 1 1284 3531 )" />
    <path d="M 0 16.5  C 0 7.38730239868164  7.38730239868164 0  16.5 0  C 25.6126976013184 0  33 7.38730239868164  33 16.5  C 33 25.6126976013184  25.6126976013184 33  16.5 33  C 7.38730239868164 33  0 25.6126976013184  0 16.5  Z " stroke-width="1" stroke="#707070" fill="none" transform="matrix(1 0 0 1 1284 3531 )" mask="url(#clip51)" />
  </g>
</svg>