<?xml version="1.0" encoding="utf-8"?>
<svg version="1.1" xmlns:xlink="http://www.w3.org/1999/xlink" width="22px" height="12px" xmlns="http://www.w3.org/2000/svg">
  <g transform="matrix(1 0 0 1 -2306 -3533 )">
    <path d="M 22 11.5794193299719  L 21.7922089385906 12  L 19.3709333053807 10.7134170802885  L 19.5786636801483 10.2928521423122  L 22 11.5794193299719  Z M 17.1573273602966 9.00625349054897  L 16.9495362988872 9.42680269647372  L 14.5281392923938 8.14010965240032  L 14.7359303538031 7.71956044647569  L 17.1573273602966 9.00625349054897  Z M 12.3146547205932 6.43294606266076  L 12.1068029725421 6.85351100063712  L 9.68546665269035 5.56692808092567  L 9.89325771409971 5.14636314294929  L 12.3146547205932 6.43294606266076  Z M 7.47186070760624 3.85976449118609  L 7.26406964619688 4.28032942916248  L 4.84267263970341 2.993746509451  L 5.05052438775454 2.57318157147464  L 7.47186070760624 3.85976449118609  Z M 2.62912738126107 1.28659865176317  L 2.42139700649347 1.70714785768792  L 0 0.42054920592472  L 0.207791061409364 0  L 2.62912738126107 1.28659865176317  Z " fill-rule="nonzero" fill="#cbcbcb" stroke="none" transform="matrix(1 0 0 1 2306 3533 )" />
  </g>
</svg>