<?xml version="1.0" encoding="utf-8"?>
<svg version="1.1" xmlns:xlink="http://www.w3.org/1999/xlink" width="13px" height="24px" xmlns="http://www.w3.org/2000/svg">
  <g transform="matrix(1 0 0 1 -2225 -3555 )">
    <path d="M 12.2179917941242 3.38551728327562  C 12.7324378975088 4.32813923819938  13.0012685014284 5.38375554340568  13 6.45610837737689  C 13 6.59853593341838  12.9953539224792 6.73983962092218  12.9860770505873 6.87995869023753  C 12.9339767931249 7.68789866958265  12.7285865437745 8.47876799708402  12.380696206252 9.21086203754334  C 12.3780063718978 9.2171192515643  12.374827476752 9.22292084320515  12.3721682086973 9.22875280967135  C 12.3559527868236 9.26271186440678  12.3393247199069 9.29661016949153  12.3222534416478 9.33014397667213  C 12.2188018010604 9.53717878622198  12.1040100633663 9.73847275378167  11.9784437051058 9.93308425976551  C 10.8135161825043 11.7473422027823  8.81499982365602 12.8649535265173  6.64985128319674 12.9129761253873  C 6.64985128319674 12.9129761253873  6.71414749415128 16.5860215053763  6.71414749415128 16.5860215053763  L 7.55233655846977 16.1474394022234  L 7.70200444386969 16.4301379017071  L 6.72042886869426 16.9437458234615  L 6.84043216044956 23.7655063483386  L 6.84176179447696 23.8566308243728  L 6.1936798297692 24.0000000000001  L 6.1950094637966 23.9084502764109  C 6.1950094637966 23.9084502764109  6.39907007911972 12.9134317477675  6.39907007911972 12.9134317477675  C 4.66567051880415 12.8887066399368  3.01452487038716 12.1748071198591  1.81476704952916 10.9312921450702  C 1.77388462397574 10.8893141364437  1.73343012661505 10.8459996355022  1.69387733508891 10.8031103821154  C 1.69387733508891 10.8031103821154  1.68938408906555 10.7981896604095  1.68938408906555 10.7981896604095  C 1.19451570049729 10.2618917441225  0.794265291966941 9.64643703298712  0.505551310236183 8.9777352530223  C 0.511847967928955 8.98487333697837  0.518587836964061 8.9915861733795  0.524884494656804 8.99875463216087  C -0.829783331961769 5.85073810825588  0.522286359201016 2.19916772978555  3.60714428468984 0.674503371605613  C 3.62961051480708 0.663325435878744  3.65253523941642 0.652603122532045  3.67501675268334 0.641455561630521  C 6.72243096131017 -0.817234675900613  10.3862910146836 0.288074843569706  12.103383454227 3.18410181641456  C 12.1429515289028 3.25019743636474  12.181144120102 3.3176295486301  12.2179917941242 3.38551728327562  Z " fill-rule="nonzero" fill="#e5e5e5" stroke="none" transform="matrix(1 0 0 1 2225 3555 )" />
  </g>
</svg>