<?xml version="1.0" encoding="utf-8"?>
<svg version="1.1" xmlns:xlink="http://www.w3.org/1999/xlink" width="135px" height="86px" xmlns="http://www.w3.org/2000/svg">
  <g transform="matrix(1 0 0 1 -2213 -3528 )">
    <path d="M 134.624505321952 0.377854639828791  C 123.901660058917 -0.257180549028909  113.146502378384 -0.0915895585410475  102.448226746011 0.873284073844198  C 97.2918050651239 1.34019387202767  92.0533830039845 1.84444790428222  86.9922829547143 2.97112619434671  C 82.9157361699015 3.87865520564845  78.1844056795791 5.4124558774526  75.6444057969967 8.98498302203969  C 74.5660550715593 10.4441562955861  74.2312557495103 12.324620163962  74.7394752065985 14.0672493041317  C 75.345119650782 16.1038077960323  76.8517013582958 17.7989856363278  78.4561957875085 19.1267365194889  C 82.1490173728356 22.1826124453677  86.7308572071142 23.9608758628563  90.8235906840885 26.3886480317124  C 98.296263998096 30.8214055624368  105.135278611618 36.7961165944805  109.524981495439 44.3859123139432  C 111.456623910105 47.7257021305756  113.294042096012 52.1665208859891  111.143162976969 55.8465920963143  C 109.036027555199 59.4519137686137  104.332071169511 60.6939836045114  100.495916577512 61.2797353969747  C 95.6876764368639 62.0139175425195  90.7349144364475 61.8147686507692  85.9066466936336 61.403646191627  C 80.613293522749 60.9091938757558  75.3494482953901 60.136934657532  70.1368609265422 59.0900136359819  C 59.9250548362725 57.125822956631  49.806223154839 54.6273318620936  39.4524558114708 53.4911266701237  C 34.261039172766 52.8794812468411  29.0258788367891 52.7278752597911  23.8078501787683 53.037988130784  C 19.0953584375151 53.356406506002  14.3425066578031 54.1030163729425  9.91547683509016 55.8051256450728  C 6.50404763270333 57.1167540788558  2.86768132775813 59.1011588898134  1.02495902803526 62.4105969740938  C -0.751324673635551 65.6007655749064  -0.0585129107414347 69.2796459224934  1.87564438547469 72.2229700521455  C 4.20282432206016 75.7644736956565  7.83173743259211 78.1912687463684  11.6046237014631 79.9649824574983  C 15.9003919489469 81.9845329867026  20.4950957833989 83.2936270202992  25.0956829165084 84.406931005766  C 27.4289747773469 84.9715831533044  29.7748867710569 85.4819747089017  32.1210273903625 85.9898013293707  C 32.6104538235006 86.0957575781246  32.8195700348504 85.3427048384214  32.3283908054802 85.2363821703633  C 27.5972127322216 84.2123318203743  22.8523628483521 83.1849226267648  18.2386983311799 81.7025122623534  C 13.9692220271785 80.3306689229385  9.60000399671414 78.5733524756649  6.10369373157162 75.692838721715  C 3.27516834746936 73.3624730178518  0.585845467613293 69.958620892895  0.752803119153112 66.0885918083628  C 0.921102040853164 62.1872338733343  4.18892388585382 59.4632422320972  7.39181606173275 57.7865685666561  C 11.3945320209057 55.6912303113978  15.9421999495104 54.6705388050292  20.3983414313836 54.137093368219  C 25.5007617466138 53.5675556299599  30.6464227828059 53.4974474031186  35.7624082167023 53.9277763407813  C 46.0916821379395 54.7150587504712  56.1901966247862 57.0719898538779  66.317563661785 59.1277548242989  C 76.1562222967874 61.1249537759563  86.3019251065452 62.9743330733721  96.3846796690088 62.4620788863125  C 100.381055078333 62.2590215219858  104.663121031794 61.6853921014982  108.19175895614 59.6648033842657  C 109.807349347587 58.7396557114278  111.264121158695 57.4349892444218  112.085222364077 55.7370632593459  C 112.824993824286 54.1217037574489  113.058923533601 52.3197452249653  112.75622324516 50.5685663010344  C 112.184019104745 46.7217437724253  109.90306726357 43.154773987283  107.627175668908 40.0907146969469  C 105.132382687409 36.7673832140547  102.238378932755 33.7645464824369  99.0105818086735 31.1499920733421  C 95.4681958651847 28.2943032272416  91.6486547331256 25.8018580512209  87.6093586786728 23.7102145239451  C 85.4673807161479 22.5805438095642  83.2949498243026 21.494293782713  81.2535671237974 20.1858409828985  C 79.2963186424359 18.9312823557211  77.3655907301522 17.4217569628101  76.1703056334702 15.3851374010255  C 75.1365521408614 13.6236682016392  74.9469453136608 11.6132476200942  76.0236804182234 9.82670923332261  C 77.1127308215302 8.01977350529237  78.9891068089105 6.75953537890221  80.839419478404 5.83860152806079  C 85.2975271403985 3.61974943239629  90.4805608406016 3.02584481041793  95.3581202618051 2.41722234639368  C 105.831184440905 1.11496813980598  116.385913682717 0.587812901048474  126.936375246746 0.840062056943818  C 129.500822826341 0.90052124211179  132.063532851409 1.00684391016975  134.624535805365 1.15912166594386  C 135.125987944826 1.18867948980375  135.124280873713 0.407229254036721  134.624535805365 0.377763035002865  Z " fill-rule="nonzero" fill="#000000" stroke="none" transform="matrix(1 0 0 1 2213 3528 )" />
  </g>
</svg>