<?xml version="1.0" encoding="utf-8"?>
<svg version="1.1" xmlns:xlink="http://www.w3.org/1999/xlink" width="4px" height="15px" xmlns="http://www.w3.org/2000/svg">
  <g transform="matrix(1 0 0 1 -2341 -3532 )">
    <path d="M 1.87664026123239 10.8433193887816  L 1.87930096148032 10.8112855067141  L 1.8756727338695 10.8050882977534  L 1.86648122392211 10.4130175318143  L 4 7.34584816937843  L 1.86902098324968 10.1195632215108  L 1.86128076434662 10.2024321799805  L 1.78835338936929 7.06739290105228  L 3.63113019290077 3.88741637260694  L 1.7831529297938 6.5166496351531  L 1.80250347705146 0.0216453240511863  L 1.8023825361311 0  L 1.8017778315293 0.0212860655607106  L 1.67938562012457 5.14021060531069  L 0 3.06091227706012  L 1.67406421962871 5.58120040236951  L 1.63729817983915 8.38545242619234  L 0.0917941585535466 5.64862124574877  L 1.63173489750257 8.79770154401321  L 1.6111749410413 10.3569732073001  L 1.55469553123299 14.6769667406474  C 1.55469553123299 14.6769667406474  1.5507044808611 14.9997604943397  1.5507044808611 14.9997604943397  C 1.69293100320493 15.0008083316036  1.83382717542481 14.9985030896231  1.97327205660035 14.9927250155679  C 1.97327205660035 14.9927250155679  1.87664026123239 10.8433193887816  1.87664026123239 10.8433193887816  Z " fill-rule="nonzero" fill="#cbcbcb" stroke="none" transform="matrix(1 0 0 1 2341 3532 )" />
  </g>
</svg>