<?xml version="1.0" encoding="utf-8"?>
<svg version="1.1" xmlns:xlink="http://www.w3.org/1999/xlink" width="4px" height="15px" xmlns="http://www.w3.org/2000/svg">
  <g transform="matrix(1 0 0 1 -2331 -3534 )">
    <path d="M 1.87667236088225 10.8433193887816  L 1.87939349045337 10.8112256302991  L 1.87576531769188 10.8050583595459  L 1.86651347715007 10.4129576553993  L 4 7.34578829296332  L 1.86905319808312 10.1195033450957  L 1.86143403528398 10.202402241773  L 1.78850776277797 7.06736296284469  L 3.63125670834026 3.88738643439943  L 1.78318644272778 6.5166196969455  L 1.80253669745574 0.0216153858436745  L 1.80241575836369 0  L 1.80181106290345 0.0212561273531989  L 1.67942070174908 5.14018066710307  L 0 3.06088233885261  L 1.67403891215287 5.58120040236951  L 1.63733389771576 8.3854224879848  L 0.0919137099578225 5.64862124574877  L 1.63164976038942 8.79767160580562  L 1.61121105383301 10.3570031455077  L 1.5547929673918 14.6769368024398  C 1.5547929673918 14.6769368024398  1.55068103826211 14.9997604943397  1.55068103826211 14.9997604943397  C 1.69296588005866 15.0008382698111  1.83385992229663 14.9984731514155  1.97330269543001 14.9926950773603  C 1.97330269543001 14.9926950773603  1.87667236088225 10.8433193887816  1.87667236088225 10.8433193887816  Z " fill-rule="nonzero" fill="#cbcbcb" stroke="none" transform="matrix(1 0 0 1 2331 3534 )" />
  </g>
</svg>