<?xml version="1.0" encoding="utf-8"?>
<svg version="1.1" xmlns:xlink="http://www.w3.org/1999/xlink" width="4px" height="15px" xmlns="http://www.w3.org/2000/svg">
  <g transform="matrix(1 0 0 1 -2336 -3530 )">
    <path d="M 1.87667236088225 10.8433193887816  L 1.87933302090735 10.8113004758179  L 1.87570484814585 10.8051032668572  L 1.86651347715007 10.4130025627106  L 4 7.34583320027469  L 1.86905319808312 10.1195482524071  L 1.86137356573796 10.2024321799805  L 1.78838682368592 7.06739290105223  L 3.63119623879424 3.88741637260691  L 1.78318644272778 6.51664963515304  L 1.80253669745574 0.0216303549474444  L 1.80241575836369 0  L 1.80181106290345 0.0212710964569687  L 1.67942070174908 5.14021060531064  L 0 3.06089730795638  L 1.67403891215287 5.58120040236948  L 1.63733389771576 8.38545242619231  L 0.0919137099578225 5.64860627664503  L 1.63177069948147 8.79770154401316  L 1.61121105383301 10.3569732073002  L 1.5547929673918 14.6769517715435  C 1.5547929673918 14.6769517715435  1.55068103826211 14.9997455252359  1.55068103826211 14.9997455252359  C 1.69296588005866 15.0008083316036  1.83385992229663 14.9984881205192  1.97330269543001 14.9927100464641  C 1.97330269543001 14.9927100464641  1.87667236088225 10.8433193887816  1.87667236088225 10.8433193887816  Z " fill-rule="nonzero" fill="#cbcbcb" stroke="none" transform="matrix(1 0 0 1 2336 3530 )" />
  </g>
</svg>