<?xml version="1.0" encoding="utf-8"?>
<svg version="1.1" xmlns:xlink="http://www.w3.org/1999/xlink" width="32px" height="69px" xmlns="http://www.w3.org/2000/svg">
  <g transform="matrix(1 0 0 1 -2357 -3558 )">
    <path d="M 19.7679437671989 6.71285931645162  L 17.6928826834347 1.76078180087388  L 16.8191600817836 0  L 9.39263834837778 3.74166132685706  L 9.6110088084763 5.28234540262165  C 9.6110088084763 5.28234540262165  8.1912396759504 7.15314574120514  8.1912396759504 7.15314574120514  C 8.1912396759504 7.15314574120514  5.78850252140988 8.47370176701553  6.22542401254968 12.8756562692002  C 6.22542401254968 12.8756562692002  6.66222512306098 17.0574827214307  6.66222512306098 17.0574827214307  L 7.20833184425004 22.449846661762  L 3.38564498624087 35.7654861072656  L 1.41976913252591 53.3731828166243  L 0 67.569395111635  L 6.88053539284525 67.2392181991261  L 13.2150844451299 44.1291996614165  L 24.3549874258672 69  L 32 67.0191811237069  L 21.5153889705011 42.3683572108526  C 21.5153889705011 42.3683572108526  20.2048050680245 32.0238854300986  20.2048050680245 32.0238854300986  C 20.2048050680245 32.0238854300986  21.0785276696756 26.5215029520577  16.9283453118329 22.7798719500458  C 16.9283453118329 22.7798719500458  17.5836974533854 20.7989924240626  17.5836974533854 20.7989924240626  L 17.5836974533854 18.3580243495321  L 19.7679437671989 6.71285931645162  Z " fill-rule="nonzero" fill="#2f2e41" stroke="none" transform="matrix(1 0 0 1 2357 3558 )" />
  </g>
</svg>