<?xml version="1.0" encoding="utf-8"?>
<svg version="1.1" xmlns:xlink="http://www.w3.org/1999/xlink" width="12px" height="23px" xmlns="http://www.w3.org/2000/svg">
  <g transform="matrix(1 0 0 1 -2374 -3559 )">
    <path d="M 11.9970402090746 8.88966350112532  C 11.9289020435152 10.6131739845305  11.7937592493466 14.0056645153533  11.7937592493466 14.1787550613373  C 11.7937592493466 14.361224601824  9.09984571302623 19.686389217816  7.93595516231619 21.9782908167933  C 7.93595516231619 21.9782908167933  7.93595516231619 21.9794331302264  7.93595516231619 21.9794331302264  C 7.85320696495481 22.1409802983608  7.77902326899462 22.2874369048273  7.71315217733556 22.4163980792405  C 7.52939324286029 22.7795936291847  7.1410938631569 23.0073949764349  6.71866242639882 22.9998196347212  C 6.71866242639882 22.9998196347212  1.6327340281495 22.912643083253  1.6327340281495 22.912643083253  C 1.05185931546963 22.9032039669905  0.582071223905035 22.4583029457048  0.567461192103026 21.9038600783674  C 0.567461192103026 21.9038600783674  0.000188922825025977 0.541576810775966  0.000188922825025977 0.541576810775966  C -0.00358953367549356 0.399268605724114  0.0529613652822822 0.261529654404498  0.156994867596587 0.159563150066582  C 0.261028369910891 0.0575966457286664  0.403728077080513 0.000120243519322403  0.552851160301017 0  C 0.552851160301017 0  7.11187379955288 0  7.11187379955288 0  C 7.67713089203061 0.000240487038588813  8.19263830725149 0.30902584451473  8.43874177398533 0.794929905870292  C 8.43874177398533 0.794929905870292  11.5868257816682 7.01266216537666  11.5868257816682 7.01266216537666  C 11.8819232343588 7.59698554725184  12.0227337132781 8.24137056700053  11.9970402090746 8.88960337936575  Z " fill-rule="nonzero" fill="#ffba19" stroke="none" transform="matrix(1 0 0 1 2374 3559 )" />
  </g>
</svg>