<?xml version="1.0" encoding="utf-8"?>
<svg version="1.1" xmlns:xlink="http://www.w3.org/1999/xlink" width="8px" height="20px" xmlns="http://www.w3.org/2000/svg">
  <g transform="matrix(1 0 0 1 -2367 -3560 )">
    <path d="M 7.94021257750221 19.3725427215141  C 7.94021257750221 19.3725427215141  7.58604327470581 20  7.58604327470581 20  C 6.27483234214855 19.2242335144217  5.09673541693028 18.2521318290337  4.09471086929014 17.1192434439115  C 1.76654435024674 14.5626855023272  0.350563077312413 11.3376860428126  0.0594710869290143 7.92855091218507  C -0.200366949259775 5.01165904324816  0.392509173731494 2.84357115722567  1.82139693787169 1.48426569646955  C 3.63766923952929 -0.243589070457626  6.11002151081868 0.00744325674917654  6.21434898139947 0.0190559726731132  C 6.21434898139947 0.0190559726731132  6.32506643046944 0.0313172711352974  6.32506643046944 0.0313172711352974  L 8 1.4150217892848  L 7.526002783753 1.96193129348978  C 7.526002783753 1.96193129348978  6.02726812602809 0.7237563429828  6.02726812602809 0.7237563429828  C 5.56851828419587 0.701395687852667  3.69568518284196 0.696546761256825  2.32753384790586 2.0030390724652  C 1.06826521574086 3.20569640777928  0.551119827913451 5.17843741024087  0.79052258635961 7.86647229780439  C 1.06750601037581 11.1124117078414  2.41224851322283 14.183789760426  4.62406681007212 16.6221821405077  C 5.57826141971403 17.6997865854601  6.69676072377578 18.62741403965  7.94021257750221 19.3725427215141  Z " fill-rule="nonzero" fill="#ffba19" stroke="none" transform="matrix(1 0 0 1 2367 3560 )" />
  </g>
</svg>