<?xml version="1.0" encoding="utf-8"?>
<svg version="1.1" xmlns:xlink="http://www.w3.org/1999/xlink" width="275px" height="47px" xmlns="http://www.w3.org/2000/svg">
  <g transform="matrix(1 0 0 1 -2119 -3764 )">
    <path d="M 275 0.990187388639879  L 275 47  L 0 47  C 0 47  0 22.7750083015377  0 22.7750083015377  C 1.90433652662849 21.7333546093885  3.82008613352361 20.696741274987  5.75316897462046 19.6942566279865  C 14.0089151858884 15.3911271097858  22.8456909380032 11.3666139933562  32.476438675084 9.87527537201877  C 37.0311121566782 9.15195367160538  41.698085465495 9.10233954775037  46.2725334818828 9.72855845251591  C 51.1052100683675 10.4083387492523  55.7306812671238 11.82637963804  60.3101949822395 13.2493394301721  C 64.8263569469983 14.6576032394732  69.354115089568 16.1099549972673  74.0774824420552 16.9265536796163  C 78.6803105778226 17.6961495077866  83.4055089057536 17.7755199605145  88.0403791117883 17.1612643144997  C 96.8829529528086 16.0316776341716  105.190576801652 13.0047909886001  113.463473149577 10.2665407330936  C 121.788430232623 7.51347304035264  130.366306056978 4.91191971605517  139.375681760932 4.56960047961569  C 148.270072207013 4.22731160677716  157.055214451612 6.01709406126729  165.494973694986 8.23703764957304  C 182.702664013787 12.7603032742299  200.272887470469 19.4693230725897  218.493107209716 14.867840812039  C 236.9952361348 10.2028378984254  254.013054300074 -3.26411745932893  274.517232807973 0.731034055039518  C 274.711011042446 0.761670928338026  274.88391615686 0.854401365457592  275 0.990126661438098  Z " fill-rule="nonzero" fill="#e6e6e6" stroke="none" transform="matrix(1 0 0 1 2119 3764 )" />
  </g>
</svg>