<?xml version="1.0" encoding="utf-8"?>
<svg version="1.1" xmlns:xlink="http://www.w3.org/1999/xlink" width="275px" height="24px" xmlns="http://www.w3.org/2000/svg">
  <g transform="matrix(1 0 0 1 -2117 -3763 )">
    <path d="M 274.864404464898 0.975457759951996  C 275.045239157844 1.21697404188546  275.045239157844 1.52408918513681  274.864404464898 1.76560546707032  C 274.684179464105 2.05007658933782  274.295195869702 2.19347875128843  273.924137224633 2.11247477661962  C 271.483905346512 1.64254403731128  268.984167514139 1.42573576242224  266.481137344132 1.46695565795164  C 246.337030506557 1.76560546707032  230.849020712462 15.389080067952  211.152062100804 17.4268624794505  C 193.393192909036 19.2623144313257  176.678116685323 12.0073735154194  159.980111841929 8.21604051195834  C 151.30431442556 6.24574147078954  142.359033077019 5.20034748750833  133.430823108796 6.53954539959194  C 124.571630292433 7.86438514777572  116.256892569804 10.9089739770743  107.908012086537 13.6115393771399  C 99.8687332791927 16.2128797217109  91.5139997512456 18.6311534765577  82.8095468036279 18.7515825762685  C 73.2390871201313 18.8864894912449  64.6207227046919 15.5721466576762  55.7440926927176 13.0478019670187  C 51.1281133929856 11.7327138051503  46.3917808620072 10.6921058765024  41.5004645854215 10.5910004723737  C 36.7332816314387 10.5429604489918  31.9897547330402 11.1600025425915  27.4630343646886 12.4167606636164  C 18.0303651080496 14.9363192996407  9.53235392385677 19.425997499785  1.25785588340735 23.8868995464466  C 1.11604148833171 23.9709546309441  0.943376670251657 24.0102601046202  0.770467975309907 23.9976967112078  C 0.404774621198265 23.9565964670442  0.107366788361221 23.729916954474  0.0234731479381431 23.4281562098436  C -0.0606643693466295 23.1263356395303  0.0860275629629088 22.8123106299022  0.392093024390125 22.6391751035421  C 0.392093024390125 22.6391751035421  0.770467975309907 22.4368446439188  0.770467975309907 22.4368446439188  C 2.66843965145119 21.4107743562196  4.57799547852298 20.3894302974707  6.50462268591343 19.4018877495697  C 14.7331499379333 15.1625800324305  23.5410066749097 11.1979320255605  33.1398780127938 9.72861325313368  C 37.6792799779535 9.01602954391647  42.3311091763547 8.96715196097371  46.8905090441734 9.58413422889063  C 51.7071990010804 10.2537630977739  56.3174471945625 11.6507526195548  60.8819684764769 13.052588021652  C 65.3833256512122 14.4400652598492  69.8960231000163 15.8707964667949  74.6038220381765 16.6753322506547  C 79.1912677450902 17.4335031302543  83.9011396365747 17.511695297826  88.5207770892321 16.9064986894436  C 97.3341210555966 15.7936811615157  105.614228263865 12.8117298222305  113.860070773065 10.1140701281641  C 122.157493238514 7.40187279314896  130.707206317386 4.83900036269326  139.686996241858 4.50170316241058  C 148.55179822604 4.16455552633514  157.307953068337 5.92776796608881  165.719997658782 8.11481545646378  C 182.871003772775 12.5708716228091  200.383191518938 19.1802934200474  218.543360086625 14.6470621227399  C 236.984596737415 10.0513129867848  253.946232468302 -3.21566036959808  274.382869601481 0.720151658106193  C 274.576385891236 0.75030380229606  274.748684894023 0.841717445792323  274.864404464898 0.975457759951996  Z " fill-rule="nonzero" fill="#ffba19" stroke="none" transform="matrix(1 0 0 1 2117 3763 )" />
  </g>
</svg>