<?xml version="1.0" encoding="utf-8"?>
<svg version="1.1" xmlns:xlink="http://www.w3.org/1999/xlink" width="13px" height="13px" xmlns="http://www.w3.org/2000/svg">
  <g transform="matrix(1 0 0 1 -2117 -4003 )">
    <path d="M 12.72787658129 7.54629321694925  C 13.0905703381228 7.20797210060908  13.0907289551773 6.65913677717392  12.7280986451663 6.32057876202153  C 12.3655317819773 5.98210958392368  11.7778238716227 5.98210958392368  11.4150666679681 6.3205195373184  L 7.42905181165079 10.0410746094587  C 7.42905181165079 10.0410746094587  7.42905181165079 0.866723917213004  7.42905181165079 0.866723917213004  C 7.42921042870529 0.388099479278188  7.01344340543495 0  6.50063446821808 0  C 5.9880158714665 0  5.57228057160712 0.388099479278188  5.57228057160712 0.866723917213004  C 5.57228057160712 0.866723917213004  5.57228057160712 10.0410746094587  5.57228057160712 10.0410746094587  C 5.57228057160712 10.0410746094587  1.58664639622052 6.32069721142769  1.58664639622052 6.32069721142769  C 1.22503123535848 5.98133966278371  0.6371964313603 5.97997749461283  0.273614419022333 6.31755830216443  C -0.0899675933155742 6.65510949736453  -0.0913634233952244 7.20385598374515  0.270283460877773 7.54318392003751  C 0.270283460877773 7.54318392003751  0.273614419022333 7.54629321694925  0.273614419022333 7.54629321694925  C 0.273614419022333 7.54629321694925  5.84430882008434 12.7461925349539  5.84430882008434 12.7461925349539  C 6.20674878962992 13.0846024883487  6.79458359362799 13.0846024883487  7.15718218022808 12.7461925349539  C 7.15718218022808 12.7461925349539  12.72787658129 7.54629321694925  12.72787658129 7.54629321694925  Z " fill-rule="nonzero" fill="#ffffff" stroke="none" transform="matrix(1 0 0 1 2117 4003 )" />
  </g>
</svg>