<?xml version="1.0" encoding="utf-8"?>
<svg version="1.1" xmlns:xlink="http://www.w3.org/1999/xlink" width="26px" height="44px" xmlns="http://www.w3.org/2000/svg">
  <g transform="matrix(1 0 0 1 -2122 -4052 )">
    <path d="M 7.26491840968067 0.000301810589217924  C 7.27451198368909 0  7.28410555769751 0  7.29394512078306 0  C 7.50186738823463 0.00253520894895834  7.70038057348569 0.0857142073219249  7.84594460988267 0.231488721887086  C 7.84594460988267 0.231488721887086  25.7766419179579 18.2304461034881  25.7766419179579 18.2304461034881  C 25.9222674516241 18.3758282642873  26.00258288531 18.5723975010084  25.9999385027308 18.776300735046  C 25.9999385027308 18.776300735046  25.7204334138317 43.2391355047234  25.7204334138317 43.2391355047234  C 25.7188959820996 43.4514290731397  25.6270190617883 43.6533403572889  25.467126161648 43.7962476712569  C 25.306864277892 43.9408753055832  25.0926692889733 44.0138531060425  24.8755839283983 43.997826963758  C 14.7067029658241 43.2508759366417  5.8440855001266 36.9206402774462  1.99214254120914 27.6532443266469  C -1.85980041770832 18.3858785569064  -0.0378823178793277 7.77702508045996  6.69649914968199 0.261217064919458  C 6.84101773250107 0.100744374662234  7.0467260982585 0.00627766025456351  7.26491840968067 0.000301810589217924  Z " fill-rule="nonzero" fill="#e6e6e6" stroke="none" transform="matrix(1 0 0 1 2122 4052 )" />
  </g>
</svg>