<?xml version="1.0" encoding="utf-8"?>
<svg version="1.1" xmlns:xlink="http://www.w3.org/1999/xlink" width="17px" height="24px" xmlns="http://www.w3.org/2000/svg">
  <g transform="matrix(1 0 0 1 -2146 -4066 )">
    <path d="M 16.1962812463688 0.0010737815774874  C 16.2119048708947 0.000398833157352464  16.227588356051 0  16.2432718412074 0  C 16.4381181930541 0.00248503736504227  16.6248234991708 0.0806563362061252  16.7654959805347 0.218713967597363  C 16.9182004486027 0.367724171078972  17.0032025437247 0.575117412902253  16.9999102090544 0.791223625240003  C 16.9999102090544 0.791223625240003  16.7546013458078 23.2276135715765  16.7546013458078 23.2276135715765  C 16.7511294292465 23.5434280732524  16.5622691404366 23.8262314612889  16.27625504854 23.9437952042869  C 15.9902409566434 24.0614203062323  15.6631026116841 23.9908881963282  15.447664202991 23.7650565908458  C 15.447664202991 23.7650565908458  0.217443739810544 7.79964258413206  0.217443739810544 7.79964258413206  C -0.0773100041197641 7.49036281034205  -0.071683104865205 6.99464387522658  0.230074332818062 6.69251241879527  C 0.239412591155416 6.68343129459709  0.248750849492769 6.67438084987261  0.258448271612328 6.66572923830537  C 4.68795533692737 2.6691448863709  10.3033613504559 0.321030012195148  16.1962812463688 0.0010737815774874  Z " fill-rule="nonzero" fill="#ffba19" stroke="none" transform="matrix(1 0 0 1 2146 4066 )" />
  </g>
</svg>