<?xml version="1.0" encoding="utf-8"?>
<svg version="1.1" xmlns:xlink="http://www.w3.org/1999/xlink" width="86px" height="41px" xmlns="http://www.w3.org/2000/svg">
  <g transform="matrix(1 0 0 1 -2294 -4070 )">
    <path d="M 85.7324614972785 40.9999393469591  C 85.7324614972785 40.9999393469591  0.267354332113857 40.9999393469591  0.267354332113857 40.9999393469591  C 0.11958811457125 40.9999393469591  0 40.8816052640923  0 40.7356437210789  C 0 40.7356437210789  0 0.264204646318861  0 0.264204646318861  C 0 0.118303756346379  0.11958811457125 0  0.267354332113857 0  C 0.415059159453913 0  0.534831444632819 0.118303756346379  0.534831444632819 0.264204646318861  C 0.534831444632819 0.264204646318861  0.534831444632819 40.471499727801  0.534831444632819 40.471499727801  C 0.534831444632819 40.471499727801  85.7324614972785 40.471499727801  85.7324614972785 40.471499727801  C 85.880104934416 40.471499727801  86 40.5898338106678  86 40.7357347006403  C 86 40.8816962436536  85.880104934416 41.0000000000001  85.7324614972785 41.0000000000001  Z " fill-rule="nonzero" fill="#3f3d56" stroke="none" transform="matrix(1 0 0 1 2294 4070 )" />
  </g>
</svg>