<?xml version="1.0" encoding="utf-8"?>
<svg version="1.1" xmlns:xlink="http://www.w3.org/1999/xlink" width="9px" height="12px" xmlns="http://www.w3.org/2000/svg">
  <g transform="matrix(1 0 0 1 -2304 -4097 )">
    <path d="M 9 11.2256306881686  C 8.99952783479464 11.6532013412103  8.65791630871735 11.9997604981638  8.2362727803317 12  C 8.2362727803317 12  0.763255054462945 12  0.763255054462945 12  C 0.341788588029301 11.9994611208686  0.000413144554689191 11.6531414657512  0 11.2256306881686  C 0 11.2256306881686  0 0.774369311831391  0 0.774369311831391  C 0.000413144554689191 0.346918409707808  0.34190662933064 0.000538879131406674  0.763255054462945 0  C 0.763255054462945 0  8.23656788358505 0  8.23656788358505 0  C 8.65803435001869 0.000538879131406674  8.9994097934933 0.346918409707808  9 0.774309436372346  C 9 0.774309436372346  9 11.2256306881686  9 11.2256306881686  Z " fill-rule="nonzero" fill="#ffba19" stroke="none" transform="matrix(1 0 0 1 2304 4097 )" />
  </g>
</svg>