<?xml version="1.0" encoding="utf-8"?>
<svg version="1.1" xmlns:xlink="http://www.w3.org/1999/xlink" width="9px" height="22px" xmlns="http://www.w3.org/2000/svg">
  <g transform="matrix(1 0 0 1 -2318 -4086 )">
    <path d="M 9 21.2226393750359  C 8.9994097934933 21.6518513660844  8.65779826741601 21.9996092607925  8.2362727803317 22  C 8.2362727803317 22  0.763137013161605 22  0.763137013161605 22  C 0.341788588029301 21.999489033344  0.000413144554689191 21.6517010817738  0 21.2225492044495  C 0 21.2225492044495  0 0.777420738688429  0 0.777420738688429  C 0.000413144554689191 0.348208747639909  0.341788588029301 0.000450852931773655  0.763137013161605 0  C 0.763137013161605 0  8.23656788358505 0  8.23656788358505 0  C 8.65791630871735 0.000450852931773655  8.9994097934933 0.34826886136409  9 0.777420738688429  C 9 0.777420738688429  9 21.2226393750359  9 21.2226393750359  Z " fill-rule="nonzero" fill="#ffba19" stroke="none" transform="matrix(1 0 0 1 2318 4086 )" />
  </g>
</svg>