<?xml version="1.0" encoding="utf-8"?>
<svg version="1.1" xmlns:xlink="http://www.w3.org/1999/xlink" width="9px" height="12px" xmlns="http://www.w3.org/2000/svg">
  <g transform="matrix(1 0 0 1 -2333 -4097 )">
    <path d="M 9 11.2256306881686  C 8.99940977414024 11.6530815902922  8.6580231368537 11.9994611208686  8.23671991815535 12  C 8.23671991815535 12  0.763280081844653 12  0.763280081844653 12  C 0.341976863146297 11.9994611208686  0.000590225859762336 11.6531414657512  0 11.2256306881686  C 0 11.2256306881686  0 0.774369311831391  0 0.774369311831391  C 0.000590225859762336 0.346918409707808  0.341976863146297 0.000538879131406674  0.763280081844653 0  C 0.763280081844653 0  8.23671991815535 0  8.23671991815535 0  C 8.6580231368537 0.000538879131406674  8.99940977414024 0.346918409707808  9 0.774309436372346  C 9 0.774309436372346  9 11.2256306881686  9 11.2256306881686  Z " fill-rule="nonzero" fill="#ffba19" stroke="none" transform="matrix(1 0 0 1 2333 4097 )" />
  </g>
</svg>