<?xml version="1.0" encoding="utf-8"?>
<svg version="1.1" xmlns:xlink="http://www.w3.org/1999/xlink" width="9px" height="26px" xmlns="http://www.w3.org/2000/svg">
  <g transform="matrix(1 0 0 1 -2347 -4082 )">
    <path d="M 9 25.2555618409949  C 8.98984838151199 25.6760639136442  8.64847069933372 26.0088307846392  8.2369760243429 25.9998191648197  C 8.2369760243429 25.9998191648197  0.763378101883427 25.9998191648197  0.763378101883427 25.9998191648197  C 0.351529300666282 26.0089212022294  0.0103877026388962 25.6761543312344  0 25.255652258585  C 0 25.255652258585  0.000118042075442002 0.744438159005128  0.000118042075442002 0.744438159005128  C 0.0103877026388962 0.323905947159033  0.351765384817166 -0.0089212022293732  0.763378101883427 0.000180835180381271  C 0.763378101883427 0.000180835180381271  8.23685798226746 0.000180835180381271  8.23685798226746 0.000180835180381271  C 8.64847069933372 -0.0089212022293732  8.98984838151199 0.323905947159033  9 0.744438159005128  C 9 0.744438159005128  9 25.2555618409949  9 25.2555618409949  Z " fill-rule="nonzero" fill="#ffba19" stroke="none" transform="matrix(1 0 0 1 2347 4082 )" />
  </g>
</svg>