<?xml version="1.0" encoding="utf-8"?>
<svg version="1.1" xmlns:xlink="http://www.w3.org/1999/xlink" width="9px" height="34px" xmlns="http://www.w3.org/2000/svg">
  <g transform="matrix(1 0 0 1 -2361 -4075 )">
    <path d="M 8.99976392204181 33.1989915485723  C 8.99952784408362 33.6412401256557  8.65804107756473 33.9995354857044  8.2366419221992 34  C 8.2366419221992 34  0.763476116779897 34  0.763476116779897 34  C 0.341958922435275 33.9995354857044  0.000590194895469926 33.6412401256557  0 33.1989915485723  C 0 33.1989915485723  0 0.800977483808033  0 0.800977483808033  C 0.000590194895469926 0.35882180958375  0.341958922435275 0.000526449535075839  0.763476116779897 0  C 0.763476116779897 0  8.2365238832201 0  8.2365238832201 0  C 8.65804107756473 0.000526449535075839  8.99940980510453 0.35882180958375  9 0.800977483808033  C 9 0.800977483808033  8.99976392204181 33.1989915485723  8.99976392204181 33.1989915485723  Z " fill-rule="nonzero" fill="#ffba19" stroke="none" transform="matrix(1 0 0 1 2361 4075 )" />
  </g>
</svg>