<?xml version="1.0" encoding="utf-8"?>
<svg version="1.1" xmlns:xlink="http://www.w3.org/1999/xlink" width="360px" height="261px" xmlns="http://www.w3.org/2000/svg">
  <defs>
    <linearGradient gradientUnits="userSpaceOnUse" x1="180" y1="0" x2="180" y2="261" id="LinearGradient55">
      <stop id="Stop56" stop-color="#ffba19" offset="0" />
      <stop id="Stop57" stop-color="#ffffff" offset="1" />
    </linearGradient>
  </defs>
  <g transform="matrix(1 0 0 1 -2339 -4560 )">
    <path d="M 0.0178350139056102 261  C 0.0178350139056102 261  -2.51082791654734 1.61855758234904  52.6159784893988 0.0110951969867986  C 107.742540580086 -1.59636718837545  116.556457863083 172.809400015697  155.16657550088 172.809400015697  C 193.776693138677 172.809400015697  194.248221588511 99.81812257551  229.766529623904 99.81812257551  C 258.735967142312 99.81812257551  258.482123588231 144.241828205934  289.181313140225 144.241828205934  C 319.880258376959 144.241828205934  313.120543791474 87.1769135255739  341.004977244748 87.1769135255739  C 368.889410698022 87.1769135255739  357.840008795349 261  357.840008795349 261  C 357.840008795349 261  0.0178350139056102 261  0.0178350139056102 261  Z " fill-rule="nonzero" fill="url(#LinearGradient55)" stroke="none" transform="matrix(1 0 0 1 2339 4560 )" />
  </g>
</svg>