<?xml version="1.0" encoding="utf-8"?>
<svg version="1.1" xmlns:xlink="http://www.w3.org/1999/xlink" width="375px" height="258px" xmlns="http://www.w3.org/2000/svg">
  <defs>
    <linearGradient gradientUnits="userSpaceOnUse" x1="187.5" y1="0" x2="187.5" y2="258" id="LinearGradient58">
      <stop id="Stop59" stop-color="#ffba19" offset="0" />
      <stop id="Stop60" stop-color="#ffffff" offset="1" />
    </linearGradient>
  </defs>
  <g transform="matrix(1 0 0 1 -2322 -4597 )">
    <path d="M 0 258  C 0 258  28.841212401419 10.5686435131491  28.841212401419 10.5686435131491  C 77.3808359488224 -12.3202147731802  87.7470636875283 6.36687484294544  114.420161641668 25.1263666448505  C 141.092592757244 43.8859805415044  148.163304318447 5.56056112474863  168.330725253621 6.71044946484214  C 188.498590747837 7.86021571018682  182.654417583199 102.250688912519  211.307136950858 107.942257702262  C 239.959856318518 113.633704397257  238.548381360529 99.8894985739054  266.255968205137 117.358082601357  C 293.963777329267 134.826666628808  284.823643428084 36.90704472501  333.832054485156 25.1263666448505  C 382.841354660312 13.3455664699431  374.454748335126 252.312216147456  374.454748335126 252.312216147456  C 374.454748335126 252.312216147456  0 258  0 258  Z " fill-rule="nonzero" fill="url(#LinearGradient58)" stroke="none" transform="matrix(1 0 0 1 2322 4597 )" />
  </g>
</svg>