<?xml version="1.0" encoding="utf-8"?>
<svg version="1.1" xmlns:xlink="http://www.w3.org/1999/xlink" width="186px" height="93px" xmlns="http://www.w3.org/2000/svg">
  <g transform="matrix(1 0 0 1 -147 -445 )">
    <path d="M 0 22.970467923619  C 0 18.7892524494681  4.47114244752806 15.3997077119756  9.98657728993273 15.3997077119756  C 9.98657728993273 15.3997077119756  112.516770756381 0  112.516770756381 0  C 112.516770756381 0  176.013419851248 15.3997077119756  176.013419851248 15.3997077119756  C 181.528852311303 15.3997077119756  186 18.7892524494681  186 22.970467923619  C 186 22.970467923619  186 85.4292431113892  186 85.4292431113892  C 186 89.6104611964943  181.528852311303 93  176.013419851248 93  C 176.013419851248 93  9.98657728993273 93  9.98657728993273 93  C 4.47114244752806 93  0 89.6104611964943  0 85.4292431113892  C 0 85.4292431113892  0 22.970467923619  0 22.970467923619  Z " fill-rule="nonzero" fill="#ffffff" stroke="none" transform="matrix(1 0 0 1 147 445 )" />
  </g>
</svg>