<?xml version="1.0" encoding="utf-8"?>
<svg version="1.1" xmlns:xlink="http://www.w3.org/1999/xlink" width="40px" height="40px" xmlns="http://www.w3.org/2000/svg">
  <defs>
    <mask fill="white" id="clip158">
      <path d="M 0 20  C 0 8.95430590613885  8.95430590613885 0  20 0  C 31.0456950480817 0  40 8.95430590613885  40 20  C 40 31.0456950480817  31.0456950480817 40  20 40  C 8.95430590613885 40  0 31.0456950480817  0 20  Z " fill-rule="evenodd" />
    </mask>
  </defs>
  <g transform="matrix(1 0 0 1 -154 -479 )">
    <path d="M 0 20  C 0 8.95430590613885  8.95430590613885 0  20 0  C 31.0456950480817 0  40 8.95430590613885  40 20  C 40 31.0456950480817  31.0456950480817 40  20 40  C 8.95430590613885 40  0 31.0456950480817  0 20  Z " fill-rule="nonzero" fill="#ffffff" stroke="none" fill-opacity="0" transform="matrix(1 0 0 1 154 479 )" />
    <path d="M 0 20  C 0 8.95430590613885  8.95430590613885 0  20 0  C 31.0456950480817 0  40 8.95430590613885  40 20  C 40 31.0456950480817  31.0456950480817 40  20 40  C 8.95430590613885 40  0 31.0456950480817  0 20  Z " stroke-width="4" stroke="#fea800" fill="none" transform="matrix(1 0 0 1 154 479 )" mask="url(#clip158)" />
  </g>
</svg>